<?xml version="1.0" standalone="no"?>
<!DOCTYPE svg PUBLIC "-//W3C//DTD SVG 20010904//EN"
 "http://www.w3.org/TR/2001/REC-SVG-20010904/DTD/svg10.dtd">
<svg version="1.0" xmlns="http://www.w3.org/2000/svg"
 width="437.000000pt" height="437.000000pt" viewBox="0 0 437.000000 437.000000"
 preserveAspectRatio="xMidYMid meet">
<metadata>
Created by potrace 1.14, written by Peter Selinger 2001-2017
</metadata>
<g transform="translate(0.000000,437.000000) scale(0.100000,-0.100000)"
fill="#000000" stroke="none">
<path d="M831 3234 c-40 -13 -92 -32 -115 -42 -92 -43 -135 -48 -232 -27 -55
12 -50 -11 21 -117 54 -79 66 -104 58 -117 -6 -9 -16 -16 -23 -16 -7 0 -15 -6
-17 -12 -3 -9 10 -13 46 -14 28 -1 54 -2 59 -3 18 -4 62 -40 62 -51 0 -7 4
-15 8 -17 12 -5 55 -69 50 -74 -3 -2 -39 -13 -82 -24 -89 -24 -193 -64 -309
-119 -90 -44 -82 -45 -175 17 -46 29 -72 29 -72 -1 0 -13 5 -28 12 -35 24 -24
14 -105 -21 -173 -18 -35 -41 -73 -51 -84 -50 -59 -58 -119 -30 -226 27 -99
62 -135 110 -109 23 12 100 136 131 210 13 30 28 64 35 75 11 20 47 135 58
187 4 18 16 29 37 37 51 18 73 13 112 -24 64 -61 62 -115 -9 -180 -50 -46 -65
-85 -60 -160 5 -77 31 -126 74 -139 35 -11 55 4 166 128 10 12 46 57 78 101
33 44 62 82 65 85 5 6 2 -142 -4 -152 -2 -4 -15 -3 -28 2 -32 12 -32 0 0 -38
35 -41 31 -109 -8 -150 -15 -16 -25 -31 -21 -34 3 -4 -22 -28 -56 -55 -35 -26
-77 -60 -94 -75 -17 -15 -34 -28 -37 -28 -4 0 -14 -12 -24 -26 -13 -20 -14
-28 -5 -34 16 -10 109 12 174 40 66 28 88 24 97 -18 5 -27 2 -36 -18 -51 -20
-16 -120 -61 -185 -84 -29 -10 -21 -43 18 -77 42 -36 82 -54 137 -59 12 -2 8
-29 -8 -44 -8 -9 -23 -13 -33 -10 -11 3 -32 -7 -51 -23 -38 -32 -51 -24 -70
44 -12 43 -27 54 -37 27 -12 -30 -36 7 -55 85 -12 48 -20 138 -22 245 -2 90
-2 90 -29 93 -53 6 -71 -55 -70 -238 1 -185 50 -310 159 -408 97 -88 110 -95
148 -68 11 7 36 12 55 11 41 -2 99 12 120 30 16 14 93 38 125 38 54 1 80 -19
117 -88 11 -22 26 -43 32 -47 22 -15 66 -8 84 13 9 12 22 26 27 33 31 34 75
97 98 138 29 52 67 171 66 203 -1 21 7 103 17 170 3 21 16 71 28 110 22 70 22
71 3 105 -27 49 -81 98 -117 105 -3 1 -32 10 -65 20 -79 24 -146 22 -278 -5
-60 -12 -110 -20 -112 -18 -2 2 0 9 4 17 8 12 45 23 121 36 116 19 203 58 248
110 72 81 75 114 16 211 -19 31 -32 59 -29 62 3 3 128 6 278 7 149 1 278 2
285 3 20 3 41 62 37 103 -7 75 -44 131 -125 190 -50 37 -129 67 -191 75 -68 8
-434 8 -472 1 -29 -6 -187 39 -187 53 0 12 33 37 85 65 189 100 242 136 230
155 -3 5 -1 11 4 15 16 9 -9 68 -43 98 -54 47 -95 62 -176 63 -52 1 -97 -6
-149 -22z m698 -549 c41 -21 46 -33 25 -56 -33 -37 -255 -132 -270 -116 -2 2
7 29 22 61 14 31 24 68 23 84 -6 49 6 55 92 49 43 -4 92 -13 108 -22z m-397
-28 c3 -6 4 -22 2 -36 -6 -31 -54 -131 -64 -131 -10 0 -29 -49 -31 -80 -6 -67
20 -119 76 -156 15 -10 22 -21 18 -32 -7 -21 -83 -92 -139 -132 l-42 -29 -4
23 c-5 27 -2 163 6 233 12 114 76 323 108 353 17 15 25 17 42 8 12 -6 24 -16
28 -21z m-325 -59 c1 -7 3 -32 6 -56 5 -42 4 -43 -39 -63 -23 -12 -48 -27 -55
-35 -6 -8 -15 -14 -19 -14 -10 0 -82 121 -76 128 6 6 155 51 172 51 6 1 11 -5
11 -11z m425 -703 c28 -11 38 -80 25 -160 -3 -16 -8 -50 -12 -75 -13 -89 -16
-106 -26 -145 -16 -64 -50 -145 -61 -145 -6 0 -27 10 -47 23 -20 12 -56 27
-81 32 -41 9 -45 13 -46 40 -1 46 53 95 106 97 16 0 42 22 49 41 15 40 -49
126 -113 152 -40 17 -57 42 -54 78 5 60 170 100 260 62z"/>
<path d="M3198 3214 c-49 -15 -14 -71 73 -114 32 -17 63 -39 69 -50 13 -24 12
-157 -1 -181 -14 -27 -335 -200 -455 -245 -94 -35 -212 -38 -264 -6 -19 12
-45 22 -57 22 -57 0 -7 -89 114 -200 118 -110 153 -125 274 -123 99 1 151 20
258 92 34 23 61 38 61 33 0 -18 -132 -145 -200 -192 -19 -13 -37 -27 -40 -30
-5 -5 -23 -16 -99 -57 -64 -36 -89 -61 -101 -102 -14 -50 -12 -131 3 -161 17
-33 55 -29 120 13 27 18 51 31 53 30 17 -11 161 73 233 136 13 12 27 21 30 21
3 0 7 -40 8 -89 l2 -89 -82 -39 c-45 -22 -125 -57 -177 -77 -159 -62 -148 -56
-126 -71 28 -21 105 -11 256 34 74 22 143 43 153 46 11 5 17 2 17 -7 0 -19 69
-90 80 -83 5 3 11 1 15 -5 21 -34 68 53 77 145 2 17 8 30 13 30 15 1 108 43
241 111 224 115 277 160 268 228 -7 60 -23 80 -97 124 l-72 44 -90 -6 c-49 -4
-101 -8 -115 -11 -72 -12 -100 -14 -100 -10 0 12 52 103 85 148 34 47 48 86
59 155 2 19 6 36 9 38 2 2 38 8 79 14 97 12 122 24 142 69 24 52 26 73 11 107
-17 41 -68 63 -157 70 -40 4 -75 8 -77 10 -2 2 -4 23 -6 48 -1 25 -9 55 -17
68 -15 22 -108 95 -108 84 0 -3 -17 2 -37 11 -38 16 -286 29 -325 17z m506
-1002 c6 -10 -47 -52 -64 -52 -5 0 -10 -4 -10 -8 0 -5 -16 -17 -35 -28 -19
-10 -35 -22 -35 -26 0 -5 -5 -8 -11 -8 -6 0 -24 -9 -40 -21 l-29 -20 0 53 c0
66 13 85 68 101 51 15 149 21 156 9z"/>
<path d="M4040 1763 c-113 -9 -298 -41 -454 -79 -99 -24 -193 -44 -211 -44
-17 0 -71 14 -120 30 -147 50 -183 45 -425 -55 -123 -51 -217 -76 -259 -69
-14 3 -37 14 -51 24 -64 51 -90 46 -90 -18 0 -43 22 -84 78 -144 81 -87 116
-92 230 -36 40 20 74 36 76 35 10 -6 96 60 96 74 0 11 31 35 88 67 119 68 124
69 185 14 71 -65 140 -87 217 -71 19 4 47 10 62 13 14 2 118 34 230 70 202 65
272 83 316 80 12 -1 32 -2 45 -3 13 0 32 -7 43 -15 18 -14 15 -16 -41 -41 -74
-33 -192 -65 -265 -71 -81 -7 -100 -13 -100 -29 0 -18 25 -31 75 -39 58 -8 95
-16 139 -27 22 -6 49 -12 60 -14 12 -1 28 -5 36 -8 148 -53 316 -33 355 43 21
40 19 129 -4 182 -43 101 -145 144 -311 131z"/>
</g>
</svg>
